# xmcd
#
# Track frame offsets:
#	150
#	14042
#	28156
#	44309
#	61787
#	75459
#	88283
#	103158
#	117762
#	146195
#	161158
#	176193
#	192919
#	207596
#	222359
#	236509
#	251420
#	266624
#	282487
#	298249
#
# Disc length: 4183 seconds
#
# Revision: 0
# Processed by: cddbd v1.5.2PL0 Copyright (c) Steve Scherf et al.
# Submitted via: EasyCDDAExtractor 16.0.8.1
#
DISCID=3d105514
DTITLE=Chico Amado and Xodó - É nóis no DVD
DYEAR=2013
DGENRE=
TTITLE0=Chico Amado and Xodó - Pot pourri_Nóis pega mas não se apega_Trovejou ma
TTITLE0=s não choveu (Ao Vivo)
TTITLE1=Chico Amado and Xodó - Tapinha na latinha (Ao Vivo)
TTITLE2=Chico Amado and Xodó part. Samuel do Prado - Tá tudo bem aí? (Ao Vivo)
TTITLE3=Chico Amado and Xodó part. Gino and Geno - Deixa ela chorar (Ao Vivo)
TTITLE4=Chico Amado and Xodó - Vem me ver (Ao Vivo)
TTITLE5=Chico Amado and Xodó - É nóis no DVD (Ao Vivo)
TTITLE6=Chico Amado and Xodó part. João Carreiro e Capataz - Tem alguém no seu l
TTITLE6=ugar (Ao Vivo)
TTITLE7=Chico Amado and Xodó - Pot pourri_Seresteiro das noites_Meu ex amor (Ao 
TTITLE7=Vivo)
TTITLE8=Chico Amado and Xodó part. Kléber oLIVEIRA - Joga fora (Ao Vivo)
TTITLE9=Chico Amado and Xodó - Tô ligando (Ao Vivo)
TTITLE10=Chico Amado and Xodó part. Rionegro and Solimões - Bebo e choro (Ao Vivo)
TTITLE11=Chico Amado and Xodó - Pot pourri_O bicho vai pegar_Na sola da bota_De 
TTITLE11=bem com a vida (Ao Vivo)
TTITLE12=Chico Amado and Xodó part. William and Marcelo - A fila anda (Ao Vivo)
TTITLE13=Chico Amado and Xodó - Tá bombando (Ao Vivo)
TTITLE14=Chico Amado and Xodó - Telefone no ar (Ao Vivo)
TTITLE15=Chico Amado and Xodó - Pot pourri_Vai dar namoro_Quer casar comigo_Robi
TTITLE15=n Hood da paixão (Ao Vivo)
TTITLE16=Chico Amado and Xodó - Mudança (Ao Vivo)
TTITLE17=Chico Amado and Xodó - Recordação (Homenagem ao Goiá) (Ao Vivo)
TTITLE18=Chico Amado and Xodó - Meu paraíso (Estúdio)
TTITLE19=Chico Amado and Xodó - Recordação (Estúdio)
EXTD=
EXTT0=
EXTT1=
EXTT2=
EXTT3=
EXTT4=
EXTT5=
EXTT6=
EXTT7=
EXTT8=
EXTT9=
EXTT10=
EXTT11=
EXTT12=
EXTT13=
EXTT14=
EXTT15=
EXTT16=
EXTT17=
EXTT18=
EXTT19=
PLAYORDER=
